G04 (created by PCBNEW-RS274X (2012-01-19 BZR 3256)-stable) date 8/30/2012 9:43:42 AM*
G01*
G70*
G90*
%MOIN*%
G04 Gerber Fmt 3.4, Leading zero omitted, Abs format*
%FSLAX34Y34*%
G04 APERTURE LIST*
%ADD10C,0.006000*%
%ADD11C,0.012000*%
%ADD12C,0.005000*%
G04 APERTURE END LIST*
G54D10*
G54D11*
X31125Y-40156D02*
X31124Y-40163D01*
X31121Y-40171D01*
X31118Y-40178D01*
X31113Y-40184D01*
X31107Y-40189D01*
X31100Y-40192D01*
X31093Y-40195D01*
X31085Y-40195D01*
X31078Y-40195D01*
X31071Y-40193D01*
X31064Y-40189D01*
X31058Y-40184D01*
X31052Y-40178D01*
X31049Y-40171D01*
X31046Y-40164D01*
X31046Y-40156D01*
X31046Y-40149D01*
X31048Y-40142D01*
X31052Y-40135D01*
X31057Y-40129D01*
X31063Y-40124D01*
X31069Y-40120D01*
X31077Y-40117D01*
X31085Y-40117D01*
X31091Y-40117D01*
X31099Y-40119D01*
X31106Y-40123D01*
X31112Y-40128D01*
X31117Y-40133D01*
X31121Y-40140D01*
X31124Y-40148D01*
X31124Y-40155D01*
X31125Y-40156D01*
G54D12*
X32650Y-41650D02*
X32649Y-41659D01*
X32646Y-41669D01*
X32641Y-41677D01*
X32635Y-41685D01*
X32627Y-41691D01*
X32619Y-41696D01*
X32610Y-41698D01*
X32600Y-41699D01*
X32591Y-41699D01*
X32582Y-41696D01*
X32573Y-41691D01*
X32566Y-41685D01*
X32559Y-41678D01*
X32555Y-41669D01*
X32552Y-41660D01*
X32551Y-41650D01*
X32551Y-41641D01*
X32554Y-41632D01*
X32558Y-41623D01*
X32565Y-41616D01*
X32572Y-41609D01*
X32580Y-41605D01*
X32590Y-41602D01*
X32599Y-41601D01*
X32608Y-41601D01*
X32618Y-41604D01*
X32626Y-41608D01*
X32634Y-41614D01*
X32640Y-41622D01*
X32645Y-41630D01*
X32648Y-41639D01*
X32649Y-41649D01*
X32650Y-41650D01*
X32600Y-41200D02*
X32600Y-41600D01*
X32600Y-41600D02*
X33200Y-41600D01*
X33200Y-41600D02*
X33200Y-41200D01*
X33200Y-40800D02*
X33200Y-40400D01*
X33200Y-40400D02*
X32600Y-40400D01*
X32600Y-40400D02*
X32600Y-40800D01*
X33400Y-40000D02*
X33399Y-40009D01*
X33396Y-40019D01*
X33391Y-40027D01*
X33385Y-40035D01*
X33377Y-40041D01*
X33369Y-40046D01*
X33360Y-40048D01*
X33350Y-40049D01*
X33341Y-40049D01*
X33332Y-40046D01*
X33323Y-40041D01*
X33316Y-40035D01*
X33309Y-40028D01*
X33305Y-40019D01*
X33302Y-40010D01*
X33301Y-40000D01*
X33301Y-39991D01*
X33304Y-39982D01*
X33308Y-39973D01*
X33315Y-39966D01*
X33322Y-39959D01*
X33330Y-39955D01*
X33340Y-39952D01*
X33349Y-39951D01*
X33358Y-39951D01*
X33368Y-39954D01*
X33376Y-39958D01*
X33384Y-39964D01*
X33390Y-39972D01*
X33395Y-39980D01*
X33398Y-39989D01*
X33399Y-39999D01*
X33400Y-40000D01*
X33350Y-39550D02*
X33350Y-39950D01*
X33350Y-39950D02*
X33950Y-39950D01*
X33950Y-39950D02*
X33950Y-39550D01*
X33950Y-39150D02*
X33950Y-38750D01*
X33950Y-38750D02*
X33350Y-38750D01*
X33350Y-38750D02*
X33350Y-39150D01*
X32000Y-41100D02*
X31999Y-41109D01*
X31996Y-41119D01*
X31991Y-41127D01*
X31985Y-41135D01*
X31977Y-41141D01*
X31969Y-41146D01*
X31960Y-41148D01*
X31950Y-41149D01*
X31941Y-41149D01*
X31932Y-41146D01*
X31923Y-41141D01*
X31916Y-41135D01*
X31909Y-41128D01*
X31905Y-41119D01*
X31902Y-41110D01*
X31901Y-41100D01*
X31901Y-41091D01*
X31904Y-41082D01*
X31908Y-41073D01*
X31915Y-41066D01*
X31922Y-41059D01*
X31930Y-41055D01*
X31940Y-41052D01*
X31949Y-41051D01*
X31958Y-41051D01*
X31968Y-41054D01*
X31976Y-41058D01*
X31984Y-41064D01*
X31990Y-41072D01*
X31995Y-41080D01*
X31998Y-41089D01*
X31999Y-41099D01*
X32000Y-41100D01*
X31500Y-41100D02*
X31900Y-41100D01*
X31900Y-41100D02*
X31900Y-40500D01*
X31900Y-40500D02*
X31500Y-40500D01*
X31100Y-40500D02*
X30700Y-40500D01*
X30700Y-40500D02*
X30700Y-41100D01*
X30700Y-41100D02*
X31100Y-41100D01*
X39711Y-40138D02*
X39710Y-40147D01*
X39707Y-40157D01*
X39702Y-40165D01*
X39696Y-40173D01*
X39688Y-40179D01*
X39680Y-40184D01*
X39671Y-40186D01*
X39661Y-40187D01*
X39652Y-40187D01*
X39643Y-40184D01*
X39634Y-40179D01*
X39627Y-40173D01*
X39620Y-40166D01*
X39616Y-40157D01*
X39613Y-40148D01*
X39612Y-40138D01*
X39612Y-40129D01*
X39615Y-40120D01*
X39619Y-40111D01*
X39626Y-40104D01*
X39633Y-40097D01*
X39641Y-40093D01*
X39651Y-40090D01*
X39660Y-40089D01*
X39669Y-40089D01*
X39679Y-40092D01*
X39687Y-40096D01*
X39695Y-40102D01*
X39701Y-40110D01*
X39706Y-40118D01*
X39709Y-40127D01*
X39710Y-40137D01*
X39711Y-40138D01*
X39661Y-39688D02*
X39661Y-40088D01*
X39661Y-40088D02*
X40261Y-40088D01*
X40261Y-40088D02*
X40261Y-39688D01*
X40261Y-39288D02*
X40261Y-38888D01*
X40261Y-38888D02*
X39661Y-38888D01*
X39661Y-38888D02*
X39661Y-39288D01*
X39085Y-40645D02*
X39084Y-40654D01*
X39081Y-40664D01*
X39076Y-40672D01*
X39070Y-40680D01*
X39062Y-40686D01*
X39054Y-40691D01*
X39045Y-40693D01*
X39035Y-40694D01*
X39026Y-40694D01*
X39017Y-40691D01*
X39008Y-40686D01*
X39001Y-40680D01*
X38994Y-40673D01*
X38990Y-40664D01*
X38987Y-40655D01*
X38986Y-40645D01*
X38986Y-40636D01*
X38989Y-40627D01*
X38993Y-40618D01*
X39000Y-40611D01*
X39007Y-40604D01*
X39015Y-40600D01*
X39025Y-40597D01*
X39034Y-40596D01*
X39043Y-40596D01*
X39053Y-40599D01*
X39061Y-40603D01*
X39069Y-40609D01*
X39075Y-40617D01*
X39080Y-40625D01*
X39083Y-40634D01*
X39084Y-40644D01*
X39085Y-40645D01*
X39485Y-40645D02*
X39085Y-40645D01*
X39085Y-40645D02*
X39085Y-41245D01*
X39085Y-41245D02*
X39485Y-41245D01*
X39885Y-41245D02*
X40285Y-41245D01*
X40285Y-41245D02*
X40285Y-40645D01*
X40285Y-40645D02*
X39885Y-40645D01*
X38456Y-39670D02*
X38455Y-39679D01*
X38452Y-39689D01*
X38447Y-39697D01*
X38441Y-39705D01*
X38433Y-39711D01*
X38425Y-39716D01*
X38416Y-39718D01*
X38406Y-39719D01*
X38397Y-39719D01*
X38388Y-39716D01*
X38379Y-39711D01*
X38372Y-39705D01*
X38365Y-39698D01*
X38361Y-39689D01*
X38358Y-39680D01*
X38357Y-39670D01*
X38357Y-39661D01*
X38360Y-39652D01*
X38364Y-39643D01*
X38371Y-39636D01*
X38378Y-39629D01*
X38386Y-39625D01*
X38396Y-39622D01*
X38405Y-39621D01*
X38414Y-39621D01*
X38424Y-39624D01*
X38432Y-39628D01*
X38440Y-39634D01*
X38446Y-39642D01*
X38451Y-39650D01*
X38454Y-39659D01*
X38455Y-39669D01*
X38456Y-39670D01*
X37956Y-39670D02*
X38356Y-39670D01*
X38356Y-39670D02*
X38356Y-39070D01*
X38356Y-39070D02*
X37956Y-39070D01*
X37556Y-39070D02*
X37156Y-39070D01*
X37156Y-39070D02*
X37156Y-39670D01*
X37156Y-39670D02*
X37556Y-39670D01*
X38140Y-39857D02*
X38139Y-39866D01*
X38136Y-39876D01*
X38131Y-39884D01*
X38125Y-39892D01*
X38117Y-39898D01*
X38109Y-39903D01*
X38100Y-39905D01*
X38090Y-39906D01*
X38081Y-39906D01*
X38072Y-39903D01*
X38063Y-39898D01*
X38056Y-39892D01*
X38049Y-39885D01*
X38045Y-39876D01*
X38042Y-39867D01*
X38041Y-39857D01*
X38041Y-39848D01*
X38044Y-39839D01*
X38048Y-39830D01*
X38055Y-39823D01*
X38062Y-39816D01*
X38070Y-39812D01*
X38080Y-39809D01*
X38089Y-39808D01*
X38098Y-39808D01*
X38108Y-39811D01*
X38116Y-39815D01*
X38124Y-39821D01*
X38130Y-39829D01*
X38135Y-39837D01*
X38138Y-39846D01*
X38139Y-39856D01*
X38140Y-39857D01*
X38540Y-39857D02*
X38140Y-39857D01*
X38140Y-39857D02*
X38140Y-40457D01*
X38140Y-40457D02*
X38540Y-40457D01*
X38940Y-40457D02*
X39340Y-40457D01*
X39340Y-40457D02*
X39340Y-39857D01*
X39340Y-39857D02*
X38940Y-39857D01*
X36408Y-39857D02*
X36407Y-39866D01*
X36404Y-39876D01*
X36399Y-39884D01*
X36393Y-39892D01*
X36385Y-39898D01*
X36377Y-39903D01*
X36368Y-39905D01*
X36358Y-39906D01*
X36349Y-39906D01*
X36340Y-39903D01*
X36331Y-39898D01*
X36324Y-39892D01*
X36317Y-39885D01*
X36313Y-39876D01*
X36310Y-39867D01*
X36309Y-39857D01*
X36309Y-39848D01*
X36312Y-39839D01*
X36316Y-39830D01*
X36323Y-39823D01*
X36330Y-39816D01*
X36338Y-39812D01*
X36348Y-39809D01*
X36357Y-39808D01*
X36366Y-39808D01*
X36376Y-39811D01*
X36384Y-39815D01*
X36392Y-39821D01*
X36398Y-39829D01*
X36403Y-39837D01*
X36406Y-39846D01*
X36407Y-39856D01*
X36408Y-39857D01*
X36808Y-39857D02*
X36408Y-39857D01*
X36408Y-39857D02*
X36408Y-40457D01*
X36408Y-40457D02*
X36808Y-40457D01*
X37208Y-40457D02*
X37608Y-40457D01*
X37608Y-40457D02*
X37608Y-39857D01*
X37608Y-39857D02*
X37208Y-39857D01*
X36920Y-40645D02*
X36919Y-40654D01*
X36916Y-40664D01*
X36911Y-40672D01*
X36905Y-40680D01*
X36897Y-40686D01*
X36889Y-40691D01*
X36880Y-40693D01*
X36870Y-40694D01*
X36861Y-40694D01*
X36852Y-40691D01*
X36843Y-40686D01*
X36836Y-40680D01*
X36829Y-40673D01*
X36825Y-40664D01*
X36822Y-40655D01*
X36821Y-40645D01*
X36821Y-40636D01*
X36824Y-40627D01*
X36828Y-40618D01*
X36835Y-40611D01*
X36842Y-40604D01*
X36850Y-40600D01*
X36860Y-40597D01*
X36869Y-40596D01*
X36878Y-40596D01*
X36888Y-40599D01*
X36896Y-40603D01*
X36904Y-40609D01*
X36910Y-40617D01*
X36915Y-40625D01*
X36918Y-40634D01*
X36919Y-40644D01*
X36920Y-40645D01*
X37320Y-40645D02*
X36920Y-40645D01*
X36920Y-40645D02*
X36920Y-41245D01*
X36920Y-41245D02*
X37320Y-41245D01*
X37720Y-41245D02*
X38120Y-41245D01*
X38120Y-41245D02*
X38120Y-40645D01*
X38120Y-40645D02*
X37720Y-40645D01*
G54D11*
X29289Y-38008D02*
X29775Y-38008D01*
X29832Y-38036D01*
X29860Y-38065D01*
X29889Y-38122D01*
X29889Y-38236D01*
X29860Y-38294D01*
X29832Y-38322D01*
X29775Y-38351D01*
X29289Y-38351D01*
X29289Y-38580D02*
X29289Y-38951D01*
X29517Y-38751D01*
X29517Y-38837D01*
X29546Y-38894D01*
X29575Y-38923D01*
X29632Y-38951D01*
X29775Y-38951D01*
X29832Y-38923D01*
X29860Y-38894D01*
X29889Y-38837D01*
X29889Y-38665D01*
X29860Y-38608D01*
X29832Y-38580D01*
G54D12*
X33783Y-40692D02*
X33866Y-40573D01*
X33925Y-40692D02*
X33925Y-40442D01*
X33830Y-40442D01*
X33806Y-40454D01*
X33795Y-40466D01*
X33783Y-40490D01*
X33783Y-40526D01*
X33795Y-40549D01*
X33806Y-40561D01*
X33830Y-40573D01*
X33925Y-40573D01*
X33545Y-40692D02*
X33687Y-40692D01*
X33616Y-40692D02*
X33616Y-40442D01*
X33640Y-40478D01*
X33664Y-40502D01*
X33687Y-40514D01*
X33390Y-40442D02*
X33366Y-40442D01*
X33342Y-40454D01*
X33330Y-40466D01*
X33318Y-40490D01*
X33307Y-40537D01*
X33307Y-40597D01*
X33318Y-40645D01*
X33330Y-40668D01*
X33342Y-40680D01*
X33366Y-40692D01*
X33390Y-40692D01*
X33414Y-40680D01*
X33426Y-40668D01*
X33437Y-40645D01*
X33449Y-40597D01*
X33449Y-40537D01*
X33437Y-40490D01*
X33426Y-40466D01*
X33414Y-40454D01*
X33390Y-40442D01*
X34294Y-39471D02*
X34377Y-39352D01*
X34436Y-39471D02*
X34436Y-39221D01*
X34341Y-39221D01*
X34317Y-39233D01*
X34306Y-39245D01*
X34294Y-39269D01*
X34294Y-39305D01*
X34306Y-39328D01*
X34317Y-39340D01*
X34341Y-39352D01*
X34436Y-39352D01*
X34175Y-39471D02*
X34127Y-39471D01*
X34103Y-39459D01*
X34091Y-39447D01*
X34067Y-39412D01*
X34056Y-39364D01*
X34056Y-39269D01*
X34067Y-39245D01*
X34079Y-39233D01*
X34103Y-39221D01*
X34151Y-39221D01*
X34175Y-39233D01*
X34186Y-39245D01*
X34198Y-39269D01*
X34198Y-39328D01*
X34186Y-39352D01*
X34175Y-39364D01*
X34151Y-39376D01*
X34103Y-39376D01*
X34079Y-39364D01*
X34067Y-39352D01*
X34056Y-39328D01*
X31341Y-41479D02*
X31424Y-41360D01*
X31483Y-41479D02*
X31483Y-41229D01*
X31388Y-41229D01*
X31364Y-41241D01*
X31353Y-41253D01*
X31341Y-41277D01*
X31341Y-41313D01*
X31353Y-41336D01*
X31364Y-41348D01*
X31388Y-41360D01*
X31483Y-41360D01*
X31198Y-41336D02*
X31222Y-41324D01*
X31233Y-41313D01*
X31245Y-41289D01*
X31245Y-41277D01*
X31233Y-41253D01*
X31222Y-41241D01*
X31198Y-41229D01*
X31150Y-41229D01*
X31126Y-41241D01*
X31114Y-41253D01*
X31103Y-41277D01*
X31103Y-41289D01*
X31114Y-41313D01*
X31126Y-41324D01*
X31150Y-41336D01*
X31198Y-41336D01*
X31222Y-41348D01*
X31233Y-41360D01*
X31245Y-41384D01*
X31245Y-41432D01*
X31233Y-41455D01*
X31222Y-41467D01*
X31198Y-41479D01*
X31150Y-41479D01*
X31126Y-41467D01*
X31114Y-41455D01*
X31103Y-41432D01*
X31103Y-41384D01*
X31114Y-41360D01*
X31126Y-41348D01*
X31150Y-41336D01*
X40613Y-39486D02*
X40494Y-39403D01*
X40613Y-39344D02*
X40363Y-39344D01*
X40363Y-39439D01*
X40375Y-39463D01*
X40387Y-39474D01*
X40411Y-39486D01*
X40447Y-39486D01*
X40470Y-39474D01*
X40482Y-39463D01*
X40494Y-39439D01*
X40494Y-39344D01*
X40363Y-39570D02*
X40363Y-39736D01*
X40613Y-39629D01*
X39333Y-41636D02*
X39416Y-41517D01*
X39475Y-41636D02*
X39475Y-41386D01*
X39380Y-41386D01*
X39356Y-41398D01*
X39345Y-41410D01*
X39333Y-41434D01*
X39333Y-41470D01*
X39345Y-41493D01*
X39356Y-41505D01*
X39380Y-41517D01*
X39475Y-41517D01*
X39106Y-41386D02*
X39225Y-41386D01*
X39237Y-41505D01*
X39225Y-41493D01*
X39202Y-41481D01*
X39142Y-41481D01*
X39118Y-41493D01*
X39106Y-41505D01*
X39095Y-41529D01*
X39095Y-41589D01*
X39106Y-41612D01*
X39118Y-41624D01*
X39142Y-41636D01*
X39202Y-41636D01*
X39225Y-41624D01*
X39237Y-41612D01*
X37089Y-38881D02*
X37172Y-38762D01*
X37231Y-38881D02*
X37231Y-38631D01*
X37136Y-38631D01*
X37112Y-38643D01*
X37101Y-38655D01*
X37089Y-38679D01*
X37089Y-38715D01*
X37101Y-38738D01*
X37112Y-38750D01*
X37136Y-38762D01*
X37231Y-38762D01*
X36874Y-38715D02*
X36874Y-38881D01*
X36934Y-38619D02*
X36993Y-38798D01*
X36839Y-38798D01*
X38782Y-40810D02*
X38865Y-40691D01*
X38924Y-40810D02*
X38924Y-40560D01*
X38829Y-40560D01*
X38805Y-40572D01*
X38794Y-40584D01*
X38782Y-40608D01*
X38782Y-40644D01*
X38794Y-40667D01*
X38805Y-40679D01*
X38829Y-40691D01*
X38924Y-40691D01*
X38698Y-40560D02*
X38544Y-40560D01*
X38627Y-40655D01*
X38591Y-40655D01*
X38567Y-40667D01*
X38555Y-40679D01*
X38544Y-40703D01*
X38544Y-40763D01*
X38555Y-40786D01*
X38567Y-40798D01*
X38591Y-40810D01*
X38663Y-40810D01*
X38686Y-40798D01*
X38698Y-40786D01*
X36420Y-40849D02*
X36503Y-40730D01*
X36562Y-40849D02*
X36562Y-40599D01*
X36467Y-40599D01*
X36443Y-40611D01*
X36432Y-40623D01*
X36420Y-40647D01*
X36420Y-40683D01*
X36432Y-40706D01*
X36443Y-40718D01*
X36467Y-40730D01*
X36562Y-40730D01*
X36324Y-40623D02*
X36312Y-40611D01*
X36289Y-40599D01*
X36229Y-40599D01*
X36205Y-40611D01*
X36193Y-40623D01*
X36182Y-40647D01*
X36182Y-40671D01*
X36193Y-40706D01*
X36336Y-40849D01*
X36182Y-40849D01*
X37011Y-41636D02*
X37094Y-41517D01*
X37153Y-41636D02*
X37153Y-41386D01*
X37058Y-41386D01*
X37034Y-41398D01*
X37023Y-41410D01*
X37011Y-41434D01*
X37011Y-41470D01*
X37023Y-41493D01*
X37034Y-41505D01*
X37058Y-41517D01*
X37153Y-41517D01*
X36773Y-41636D02*
X36915Y-41636D01*
X36844Y-41636D02*
X36844Y-41386D01*
X36868Y-41422D01*
X36892Y-41446D01*
X36915Y-41458D01*
G54D11*
X34921Y-30029D02*
X34835Y-30057D01*
X34807Y-30086D01*
X34778Y-30143D01*
X34778Y-30229D01*
X34807Y-30286D01*
X34835Y-30314D01*
X34893Y-30343D01*
X35121Y-30343D01*
X35121Y-29743D01*
X34921Y-29743D01*
X34864Y-29771D01*
X34835Y-29800D01*
X34807Y-29857D01*
X34807Y-29914D01*
X34835Y-29971D01*
X34864Y-30000D01*
X34921Y-30029D01*
X35121Y-30029D01*
X34607Y-29743D02*
X34264Y-29743D01*
X34435Y-30343D02*
X34435Y-29743D01*
X33750Y-30343D02*
X34093Y-30343D01*
X33921Y-30343D02*
X33921Y-29743D01*
X33978Y-29829D01*
X34036Y-29886D01*
X34093Y-29914D01*
M02*
