M48
;DRILL file {Pcbnew (2012-01-19 BZR 3256)-stable} date 8/30/2012 9:43:40 AM
;FORMAT={-:-/ absolute / inch / decimal}
FMAT,2
INCH,TZ
T1C0.013
T2C0.025
T3C0.079
%
G90
G05
M72
T1
X2.905Y-3.730
X2.950Y-3.720
X3.005Y-3.715
X3.039Y-3.677
X3.040Y-3.550
X3.045Y-4.135
X3.055Y-3.855
X3.090Y-3.920
X3.090Y-3.965
X3.100Y-3.885
X3.165Y-3.820
X3.195Y-3.990
X3.270Y-3.795
X3.300Y-3.835
X3.300Y-3.905
X3.355Y-4.060
X3.410Y-4.215
X3.440Y-3.865
X3.465Y-4.180
X3.470Y-4.130
X3.490Y-3.915
X3.545Y-3.915
X3.600Y-4.285
X3.605Y-4.025
X3.620Y-3.935
X3.630Y-4.090
X3.640Y-3.755
X3.660Y-4.130
X3.665Y-4.285
X3.665Y-3.913
X3.669Y-3.067
X3.701Y-3.130
X3.715Y-4.285
X3.787Y-4.016
X3.795Y-3.595
X3.800Y-3.140
X3.805Y-3.285
X3.811Y-3.547
X3.835Y-3.710
X3.847Y-4.095
X3.866Y-3.937
X3.875Y-3.760
X3.878Y-4.130
X3.913Y-3.701
X3.917Y-3.937
X3.976Y-3.248
X3.984Y-3.197
X3.996Y-4.039
X4.047Y-4.035
T2
X3.040Y-4.185
X3.105Y-4.205
X3.170Y-4.225
X3.235Y-4.245
X3.300Y-4.265
T3
X3.120Y-3.115
T0
M30
