G04 (created by PCBNEW-RS274X (2012-01-19 BZR 3256)-stable) date 8/30/2012 9:43:42 AM*
G01*
G70*
G90*
%MOIN*%
G04 Gerber Fmt 3.4, Leading zero omitted, Abs format*
%FSLAX34Y34*%
G04 APERTURE LIST*
%ADD10C,0.006000*%
%ADD11C,0.005000*%
%ADD12C,0.012000*%
%ADD13C,0.008000*%
G04 APERTURE END LIST*
G54D10*
G54D11*
X39576Y-30949D02*
X39576Y-31649D01*
X39576Y-31649D02*
X38376Y-31649D01*
X38376Y-31649D02*
X38376Y-30949D01*
X38376Y-30949D02*
X39576Y-30949D01*
G54D12*
X34756Y-42365D02*
X34754Y-42380D01*
X34750Y-42395D01*
X34742Y-42408D01*
X34733Y-42420D01*
X34721Y-42430D01*
X34707Y-42437D01*
X34692Y-42442D01*
X34677Y-42443D01*
X34663Y-42442D01*
X34648Y-42438D01*
X34634Y-42431D01*
X34622Y-42421D01*
X34612Y-42409D01*
X34605Y-42396D01*
X34600Y-42381D01*
X34599Y-42366D01*
X34600Y-42351D01*
X34604Y-42336D01*
X34611Y-42323D01*
X34621Y-42311D01*
X34632Y-42301D01*
X34646Y-42293D01*
X34661Y-42288D01*
X34676Y-42287D01*
X34690Y-42288D01*
X34705Y-42292D01*
X34719Y-42299D01*
X34731Y-42308D01*
X34741Y-42320D01*
X34749Y-42333D01*
X34754Y-42348D01*
X34755Y-42363D01*
X34756Y-42365D01*
X34835Y-38979D02*
X34835Y-41420D01*
X34835Y-41420D02*
X39481Y-41420D01*
X39481Y-41420D02*
X39481Y-38979D01*
X39481Y-38979D02*
X34835Y-38979D01*
G54D11*
X39130Y-33918D02*
X39129Y-33927D01*
X39126Y-33937D01*
X39121Y-33945D01*
X39115Y-33953D01*
X39107Y-33959D01*
X39099Y-33964D01*
X39090Y-33966D01*
X39080Y-33967D01*
X39071Y-33967D01*
X39062Y-33964D01*
X39053Y-33959D01*
X39046Y-33953D01*
X39039Y-33946D01*
X39035Y-33937D01*
X39032Y-33928D01*
X39031Y-33918D01*
X39031Y-33909D01*
X39034Y-33900D01*
X39038Y-33891D01*
X39045Y-33884D01*
X39052Y-33877D01*
X39060Y-33873D01*
X39070Y-33870D01*
X39079Y-33869D01*
X39088Y-33869D01*
X39098Y-33872D01*
X39106Y-33876D01*
X39114Y-33882D01*
X39120Y-33890D01*
X39125Y-33898D01*
X39128Y-33907D01*
X39129Y-33917D01*
X39130Y-33918D01*
X39080Y-33468D02*
X39080Y-33868D01*
X39080Y-33868D02*
X38480Y-33868D01*
X38480Y-33868D02*
X38480Y-33468D01*
X38480Y-33068D02*
X38480Y-32668D01*
X38480Y-32668D02*
X39080Y-32668D01*
X39080Y-32668D02*
X39080Y-33068D01*
X36450Y-30550D02*
X36449Y-30559D01*
X36446Y-30569D01*
X36441Y-30577D01*
X36435Y-30585D01*
X36427Y-30591D01*
X36419Y-30596D01*
X36410Y-30598D01*
X36400Y-30599D01*
X36391Y-30599D01*
X36382Y-30596D01*
X36373Y-30591D01*
X36366Y-30585D01*
X36359Y-30578D01*
X36355Y-30569D01*
X36352Y-30560D01*
X36351Y-30550D01*
X36351Y-30541D01*
X36354Y-30532D01*
X36358Y-30523D01*
X36365Y-30516D01*
X36372Y-30509D01*
X36380Y-30505D01*
X36390Y-30502D01*
X36399Y-30501D01*
X36408Y-30501D01*
X36418Y-30504D01*
X36426Y-30508D01*
X36434Y-30514D01*
X36440Y-30522D01*
X36445Y-30530D01*
X36448Y-30539D01*
X36449Y-30549D01*
X36450Y-30550D01*
X35950Y-30550D02*
X36350Y-30550D01*
X36350Y-30550D02*
X36350Y-31150D01*
X36350Y-31150D02*
X35950Y-31150D01*
X35550Y-31150D02*
X35150Y-31150D01*
X35150Y-31150D02*
X35150Y-30550D01*
X35150Y-30550D02*
X35550Y-30550D01*
X38530Y-35374D02*
X38529Y-35383D01*
X38526Y-35393D01*
X38521Y-35401D01*
X38515Y-35409D01*
X38507Y-35415D01*
X38499Y-35420D01*
X38490Y-35422D01*
X38480Y-35423D01*
X38471Y-35423D01*
X38462Y-35420D01*
X38453Y-35415D01*
X38446Y-35409D01*
X38439Y-35402D01*
X38435Y-35393D01*
X38432Y-35384D01*
X38431Y-35374D01*
X38431Y-35365D01*
X38434Y-35356D01*
X38438Y-35347D01*
X38445Y-35340D01*
X38452Y-35333D01*
X38460Y-35329D01*
X38470Y-35326D01*
X38479Y-35325D01*
X38488Y-35325D01*
X38498Y-35328D01*
X38506Y-35332D01*
X38514Y-35338D01*
X38520Y-35346D01*
X38525Y-35354D01*
X38528Y-35363D01*
X38529Y-35373D01*
X38530Y-35374D01*
X38480Y-35824D02*
X38480Y-35424D01*
X38480Y-35424D02*
X39080Y-35424D01*
X39080Y-35424D02*
X39080Y-35824D01*
X39080Y-36224D02*
X39080Y-36624D01*
X39080Y-36624D02*
X38480Y-36624D01*
X38480Y-36624D02*
X38480Y-36224D01*
X34799Y-33917D02*
X34798Y-33926D01*
X34795Y-33936D01*
X34790Y-33944D01*
X34784Y-33952D01*
X34776Y-33958D01*
X34768Y-33963D01*
X34759Y-33965D01*
X34749Y-33966D01*
X34740Y-33966D01*
X34731Y-33963D01*
X34722Y-33958D01*
X34715Y-33952D01*
X34708Y-33945D01*
X34704Y-33936D01*
X34701Y-33927D01*
X34700Y-33917D01*
X34700Y-33908D01*
X34703Y-33899D01*
X34707Y-33890D01*
X34714Y-33883D01*
X34721Y-33876D01*
X34729Y-33872D01*
X34739Y-33869D01*
X34748Y-33868D01*
X34757Y-33868D01*
X34767Y-33871D01*
X34775Y-33875D01*
X34783Y-33881D01*
X34789Y-33889D01*
X34794Y-33897D01*
X34797Y-33906D01*
X34798Y-33916D01*
X34799Y-33917D01*
X34749Y-33467D02*
X34749Y-33867D01*
X34749Y-33867D02*
X34149Y-33867D01*
X34149Y-33867D02*
X34149Y-33467D01*
X34149Y-33067D02*
X34149Y-32667D01*
X34149Y-32667D02*
X34749Y-32667D01*
X34749Y-32667D02*
X34749Y-33067D01*
X29450Y-32650D02*
X29449Y-32659D01*
X29446Y-32669D01*
X29441Y-32677D01*
X29435Y-32685D01*
X29427Y-32691D01*
X29419Y-32696D01*
X29410Y-32698D01*
X29400Y-32699D01*
X29391Y-32699D01*
X29382Y-32696D01*
X29373Y-32691D01*
X29366Y-32685D01*
X29359Y-32678D01*
X29355Y-32669D01*
X29352Y-32660D01*
X29351Y-32650D01*
X29351Y-32641D01*
X29354Y-32632D01*
X29358Y-32623D01*
X29365Y-32616D01*
X29372Y-32609D01*
X29380Y-32605D01*
X29390Y-32602D01*
X29399Y-32601D01*
X29408Y-32601D01*
X29418Y-32604D01*
X29426Y-32608D01*
X29434Y-32614D01*
X29440Y-32622D01*
X29445Y-32630D01*
X29448Y-32639D01*
X29449Y-32649D01*
X29450Y-32650D01*
X29400Y-33100D02*
X29400Y-32700D01*
X29400Y-32700D02*
X30000Y-32700D01*
X30000Y-32700D02*
X30000Y-33100D01*
X30000Y-33500D02*
X30000Y-33900D01*
X30000Y-33900D02*
X29400Y-33900D01*
X29400Y-33900D02*
X29400Y-33500D01*
X30050Y-36650D02*
X30049Y-36659D01*
X30046Y-36669D01*
X30041Y-36677D01*
X30035Y-36685D01*
X30027Y-36691D01*
X30019Y-36696D01*
X30010Y-36698D01*
X30000Y-36699D01*
X29991Y-36699D01*
X29982Y-36696D01*
X29973Y-36691D01*
X29966Y-36685D01*
X29959Y-36678D01*
X29955Y-36669D01*
X29952Y-36660D01*
X29951Y-36650D01*
X29951Y-36641D01*
X29954Y-36632D01*
X29958Y-36623D01*
X29965Y-36616D01*
X29972Y-36609D01*
X29980Y-36605D01*
X29990Y-36602D01*
X29999Y-36601D01*
X30008Y-36601D01*
X30018Y-36604D01*
X30026Y-36608D01*
X30034Y-36614D01*
X30040Y-36622D01*
X30045Y-36630D01*
X30048Y-36639D01*
X30049Y-36649D01*
X30050Y-36650D01*
X30000Y-36200D02*
X30000Y-36600D01*
X30000Y-36600D02*
X29400Y-36600D01*
X29400Y-36600D02*
X29400Y-36200D01*
X29400Y-35800D02*
X29400Y-35400D01*
X29400Y-35400D02*
X30000Y-35400D01*
X30000Y-35400D02*
X30000Y-35800D01*
X30424Y-34345D02*
X30423Y-34354D01*
X30420Y-34364D01*
X30415Y-34372D01*
X30409Y-34380D01*
X30401Y-34386D01*
X30393Y-34391D01*
X30384Y-34393D01*
X30374Y-34394D01*
X30365Y-34394D01*
X30356Y-34391D01*
X30347Y-34386D01*
X30340Y-34380D01*
X30333Y-34373D01*
X30329Y-34364D01*
X30326Y-34355D01*
X30325Y-34345D01*
X30325Y-34336D01*
X30328Y-34327D01*
X30332Y-34318D01*
X30339Y-34311D01*
X30346Y-34304D01*
X30354Y-34300D01*
X30364Y-34297D01*
X30373Y-34296D01*
X30382Y-34296D01*
X30392Y-34299D01*
X30400Y-34303D01*
X30408Y-34309D01*
X30414Y-34317D01*
X30419Y-34325D01*
X30422Y-34334D01*
X30423Y-34344D01*
X30424Y-34345D01*
X29924Y-34345D02*
X30324Y-34345D01*
X30324Y-34345D02*
X30324Y-34945D01*
X30324Y-34945D02*
X29924Y-34945D01*
X29524Y-34945D02*
X29124Y-34945D01*
X29124Y-34945D02*
X29124Y-34345D01*
X29124Y-34345D02*
X29524Y-34345D01*
X31443Y-32617D02*
X31442Y-32626D01*
X31439Y-32636D01*
X31434Y-32644D01*
X31428Y-32652D01*
X31420Y-32658D01*
X31412Y-32663D01*
X31403Y-32665D01*
X31393Y-32666D01*
X31384Y-32666D01*
X31375Y-32663D01*
X31366Y-32658D01*
X31359Y-32652D01*
X31352Y-32645D01*
X31348Y-32636D01*
X31345Y-32627D01*
X31344Y-32617D01*
X31344Y-32608D01*
X31347Y-32599D01*
X31351Y-32590D01*
X31358Y-32583D01*
X31365Y-32576D01*
X31373Y-32572D01*
X31383Y-32569D01*
X31392Y-32568D01*
X31401Y-32568D01*
X31411Y-32571D01*
X31419Y-32575D01*
X31427Y-32581D01*
X31433Y-32589D01*
X31438Y-32597D01*
X31441Y-32606D01*
X31442Y-32616D01*
X31443Y-32617D01*
X31393Y-33067D02*
X31393Y-32667D01*
X31393Y-32667D02*
X31993Y-32667D01*
X31993Y-32667D02*
X31993Y-33067D01*
X31993Y-33467D02*
X31993Y-33867D01*
X31993Y-33867D02*
X31393Y-33867D01*
X31393Y-33867D02*
X31393Y-33467D01*
X32043Y-36673D02*
X32042Y-36682D01*
X32039Y-36692D01*
X32034Y-36700D01*
X32028Y-36708D01*
X32020Y-36714D01*
X32012Y-36719D01*
X32003Y-36721D01*
X31993Y-36722D01*
X31984Y-36722D01*
X31975Y-36719D01*
X31966Y-36714D01*
X31959Y-36708D01*
X31952Y-36701D01*
X31948Y-36692D01*
X31945Y-36683D01*
X31944Y-36673D01*
X31944Y-36664D01*
X31947Y-36655D01*
X31951Y-36646D01*
X31958Y-36639D01*
X31965Y-36632D01*
X31973Y-36628D01*
X31983Y-36625D01*
X31992Y-36624D01*
X32001Y-36624D01*
X32011Y-36627D01*
X32019Y-36631D01*
X32027Y-36637D01*
X32033Y-36645D01*
X32038Y-36653D01*
X32041Y-36662D01*
X32042Y-36672D01*
X32043Y-36673D01*
X31993Y-36223D02*
X31993Y-36623D01*
X31993Y-36623D02*
X31393Y-36623D01*
X31393Y-36623D02*
X31393Y-36223D01*
X31393Y-35823D02*
X31393Y-35423D01*
X31393Y-35423D02*
X31993Y-35423D01*
X31993Y-35423D02*
X31993Y-35823D01*
X32471Y-32386D02*
X32470Y-32395D01*
X32467Y-32405D01*
X32462Y-32413D01*
X32456Y-32421D01*
X32448Y-32427D01*
X32440Y-32432D01*
X32431Y-32434D01*
X32421Y-32435D01*
X32412Y-32435D01*
X32403Y-32432D01*
X32394Y-32427D01*
X32387Y-32421D01*
X32380Y-32414D01*
X32376Y-32405D01*
X32373Y-32396D01*
X32372Y-32386D01*
X32372Y-32377D01*
X32375Y-32368D01*
X32379Y-32359D01*
X32386Y-32352D01*
X32393Y-32345D01*
X32401Y-32341D01*
X32411Y-32338D01*
X32420Y-32337D01*
X32429Y-32337D01*
X32439Y-32340D01*
X32447Y-32344D01*
X32455Y-32350D01*
X32461Y-32358D01*
X32466Y-32366D01*
X32469Y-32375D01*
X32470Y-32385D01*
X32471Y-32386D01*
X32871Y-32386D02*
X32471Y-32386D01*
X32471Y-32386D02*
X32471Y-31786D01*
X32471Y-31786D02*
X32871Y-31786D01*
X33271Y-31786D02*
X33671Y-31786D01*
X33671Y-31786D02*
X33671Y-32386D01*
X33671Y-32386D02*
X33271Y-32386D01*
X33771Y-34345D02*
X33770Y-34354D01*
X33767Y-34364D01*
X33762Y-34372D01*
X33756Y-34380D01*
X33748Y-34386D01*
X33740Y-34391D01*
X33731Y-34393D01*
X33721Y-34394D01*
X33712Y-34394D01*
X33703Y-34391D01*
X33694Y-34386D01*
X33687Y-34380D01*
X33680Y-34373D01*
X33676Y-34364D01*
X33673Y-34355D01*
X33672Y-34345D01*
X33672Y-34336D01*
X33675Y-34327D01*
X33679Y-34318D01*
X33686Y-34311D01*
X33693Y-34304D01*
X33701Y-34300D01*
X33711Y-34297D01*
X33720Y-34296D01*
X33729Y-34296D01*
X33739Y-34299D01*
X33747Y-34303D01*
X33755Y-34309D01*
X33761Y-34317D01*
X33766Y-34325D01*
X33769Y-34334D01*
X33770Y-34344D01*
X33771Y-34345D01*
X33271Y-34345D02*
X33671Y-34345D01*
X33671Y-34345D02*
X33671Y-34945D01*
X33671Y-34945D02*
X33271Y-34945D01*
X32871Y-34945D02*
X32471Y-34945D01*
X32471Y-34945D02*
X32471Y-34345D01*
X32471Y-34345D02*
X32871Y-34345D01*
X32471Y-37504D02*
X32470Y-37513D01*
X32467Y-37523D01*
X32462Y-37531D01*
X32456Y-37539D01*
X32448Y-37545D01*
X32440Y-37550D01*
X32431Y-37552D01*
X32421Y-37553D01*
X32412Y-37553D01*
X32403Y-37550D01*
X32394Y-37545D01*
X32387Y-37539D01*
X32380Y-37532D01*
X32376Y-37523D01*
X32373Y-37514D01*
X32372Y-37504D01*
X32372Y-37495D01*
X32375Y-37486D01*
X32379Y-37477D01*
X32386Y-37470D01*
X32393Y-37463D01*
X32401Y-37459D01*
X32411Y-37456D01*
X32420Y-37455D01*
X32429Y-37455D01*
X32439Y-37458D01*
X32447Y-37462D01*
X32455Y-37468D01*
X32461Y-37476D01*
X32466Y-37484D01*
X32469Y-37493D01*
X32470Y-37503D01*
X32471Y-37504D01*
X32871Y-37504D02*
X32471Y-37504D01*
X32471Y-37504D02*
X32471Y-36904D01*
X32471Y-36904D02*
X32871Y-36904D01*
X33271Y-36904D02*
X33671Y-36904D01*
X33671Y-36904D02*
X33671Y-37504D01*
X33671Y-37504D02*
X33271Y-37504D01*
X34199Y-35373D02*
X34198Y-35382D01*
X34195Y-35392D01*
X34190Y-35400D01*
X34184Y-35408D01*
X34176Y-35414D01*
X34168Y-35419D01*
X34159Y-35421D01*
X34149Y-35422D01*
X34140Y-35422D01*
X34131Y-35419D01*
X34122Y-35414D01*
X34115Y-35408D01*
X34108Y-35401D01*
X34104Y-35392D01*
X34101Y-35383D01*
X34100Y-35373D01*
X34100Y-35364D01*
X34103Y-35355D01*
X34107Y-35346D01*
X34114Y-35339D01*
X34121Y-35332D01*
X34129Y-35328D01*
X34139Y-35325D01*
X34148Y-35324D01*
X34157Y-35324D01*
X34167Y-35327D01*
X34175Y-35331D01*
X34183Y-35337D01*
X34189Y-35345D01*
X34194Y-35353D01*
X34197Y-35362D01*
X34198Y-35372D01*
X34199Y-35373D01*
X34149Y-35823D02*
X34149Y-35423D01*
X34149Y-35423D02*
X34749Y-35423D01*
X34749Y-35423D02*
X34749Y-35823D01*
X34749Y-36223D02*
X34749Y-36623D01*
X34749Y-36623D02*
X34149Y-36623D01*
X34149Y-36623D02*
X34149Y-36223D01*
X35774Y-32618D02*
X35773Y-32627D01*
X35770Y-32637D01*
X35765Y-32645D01*
X35759Y-32653D01*
X35751Y-32659D01*
X35743Y-32664D01*
X35734Y-32666D01*
X35724Y-32667D01*
X35715Y-32667D01*
X35706Y-32664D01*
X35697Y-32659D01*
X35690Y-32653D01*
X35683Y-32646D01*
X35679Y-32637D01*
X35676Y-32628D01*
X35675Y-32618D01*
X35675Y-32609D01*
X35678Y-32600D01*
X35682Y-32591D01*
X35689Y-32584D01*
X35696Y-32577D01*
X35704Y-32573D01*
X35714Y-32570D01*
X35723Y-32569D01*
X35732Y-32569D01*
X35742Y-32572D01*
X35750Y-32576D01*
X35758Y-32582D01*
X35764Y-32590D01*
X35769Y-32598D01*
X35772Y-32607D01*
X35773Y-32617D01*
X35774Y-32618D01*
X35724Y-33068D02*
X35724Y-32668D01*
X35724Y-32668D02*
X36324Y-32668D01*
X36324Y-32668D02*
X36324Y-33068D01*
X36324Y-33468D02*
X36324Y-33868D01*
X36324Y-33868D02*
X35724Y-33868D01*
X35724Y-33868D02*
X35724Y-33468D01*
X36374Y-36674D02*
X36373Y-36683D01*
X36370Y-36693D01*
X36365Y-36701D01*
X36359Y-36709D01*
X36351Y-36715D01*
X36343Y-36720D01*
X36334Y-36722D01*
X36324Y-36723D01*
X36315Y-36723D01*
X36306Y-36720D01*
X36297Y-36715D01*
X36290Y-36709D01*
X36283Y-36702D01*
X36279Y-36693D01*
X36276Y-36684D01*
X36275Y-36674D01*
X36275Y-36665D01*
X36278Y-36656D01*
X36282Y-36647D01*
X36289Y-36640D01*
X36296Y-36633D01*
X36304Y-36629D01*
X36314Y-36626D01*
X36323Y-36625D01*
X36332Y-36625D01*
X36342Y-36628D01*
X36350Y-36632D01*
X36358Y-36638D01*
X36364Y-36646D01*
X36369Y-36654D01*
X36372Y-36663D01*
X36373Y-36673D01*
X36374Y-36674D01*
X36324Y-36224D02*
X36324Y-36624D01*
X36324Y-36624D02*
X35724Y-36624D01*
X35724Y-36624D02*
X35724Y-36224D01*
X35724Y-35824D02*
X35724Y-35424D01*
X35724Y-35424D02*
X36324Y-35424D01*
X36324Y-35424D02*
X36324Y-35824D01*
X36802Y-32387D02*
X36801Y-32396D01*
X36798Y-32406D01*
X36793Y-32414D01*
X36787Y-32422D01*
X36779Y-32428D01*
X36771Y-32433D01*
X36762Y-32435D01*
X36752Y-32436D01*
X36743Y-32436D01*
X36734Y-32433D01*
X36725Y-32428D01*
X36718Y-32422D01*
X36711Y-32415D01*
X36707Y-32406D01*
X36704Y-32397D01*
X36703Y-32387D01*
X36703Y-32378D01*
X36706Y-32369D01*
X36710Y-32360D01*
X36717Y-32353D01*
X36724Y-32346D01*
X36732Y-32342D01*
X36742Y-32339D01*
X36751Y-32338D01*
X36760Y-32338D01*
X36770Y-32341D01*
X36778Y-32345D01*
X36786Y-32351D01*
X36792Y-32359D01*
X36797Y-32367D01*
X36800Y-32376D01*
X36801Y-32386D01*
X36802Y-32387D01*
X37202Y-32387D02*
X36802Y-32387D01*
X36802Y-32387D02*
X36802Y-31787D01*
X36802Y-31787D02*
X37202Y-31787D01*
X37602Y-31787D02*
X38002Y-31787D01*
X38002Y-31787D02*
X38002Y-32387D01*
X38002Y-32387D02*
X37602Y-32387D01*
X38102Y-34346D02*
X38101Y-34355D01*
X38098Y-34365D01*
X38093Y-34373D01*
X38087Y-34381D01*
X38079Y-34387D01*
X38071Y-34392D01*
X38062Y-34394D01*
X38052Y-34395D01*
X38043Y-34395D01*
X38034Y-34392D01*
X38025Y-34387D01*
X38018Y-34381D01*
X38011Y-34374D01*
X38007Y-34365D01*
X38004Y-34356D01*
X38003Y-34346D01*
X38003Y-34337D01*
X38006Y-34328D01*
X38010Y-34319D01*
X38017Y-34312D01*
X38024Y-34305D01*
X38032Y-34301D01*
X38042Y-34298D01*
X38051Y-34297D01*
X38060Y-34297D01*
X38070Y-34300D01*
X38078Y-34304D01*
X38086Y-34310D01*
X38092Y-34318D01*
X38097Y-34326D01*
X38100Y-34335D01*
X38101Y-34345D01*
X38102Y-34346D01*
X37602Y-34346D02*
X38002Y-34346D01*
X38002Y-34346D02*
X38002Y-34946D01*
X38002Y-34946D02*
X37602Y-34946D01*
X37202Y-34946D02*
X36802Y-34946D01*
X36802Y-34946D02*
X36802Y-34346D01*
X36802Y-34346D02*
X37202Y-34346D01*
X36802Y-37505D02*
X36801Y-37514D01*
X36798Y-37524D01*
X36793Y-37532D01*
X36787Y-37540D01*
X36779Y-37546D01*
X36771Y-37551D01*
X36762Y-37553D01*
X36752Y-37554D01*
X36743Y-37554D01*
X36734Y-37551D01*
X36725Y-37546D01*
X36718Y-37540D01*
X36711Y-37533D01*
X36707Y-37524D01*
X36704Y-37515D01*
X36703Y-37505D01*
X36703Y-37496D01*
X36706Y-37487D01*
X36710Y-37478D01*
X36717Y-37471D01*
X36724Y-37464D01*
X36732Y-37460D01*
X36742Y-37457D01*
X36751Y-37456D01*
X36760Y-37456D01*
X36770Y-37459D01*
X36778Y-37463D01*
X36786Y-37469D01*
X36792Y-37477D01*
X36797Y-37485D01*
X36800Y-37494D01*
X36801Y-37504D01*
X36802Y-37505D01*
X37202Y-37505D02*
X36802Y-37505D01*
X36802Y-37505D02*
X36802Y-36905D01*
X36802Y-36905D02*
X37202Y-36905D01*
X37602Y-36905D02*
X38002Y-36905D01*
X38002Y-36905D02*
X38002Y-37505D01*
X38002Y-37505D02*
X37602Y-37505D01*
X31366Y-42050D02*
X31359Y-42111D01*
X31342Y-42170D01*
X31313Y-42224D01*
X31274Y-42272D01*
X31226Y-42311D01*
X31172Y-42341D01*
X31113Y-42359D01*
X31052Y-42365D01*
X30991Y-42360D01*
X30932Y-42342D01*
X30877Y-42314D01*
X30829Y-42275D01*
X30790Y-42228D01*
X30760Y-42174D01*
X30741Y-42115D01*
X30735Y-42054D01*
X30740Y-41993D01*
X30757Y-41934D01*
X30785Y-41879D01*
X30823Y-41831D01*
X30870Y-41791D01*
X30924Y-41761D01*
X30983Y-41742D01*
X31044Y-41735D01*
X31104Y-41739D01*
X31164Y-41756D01*
X31219Y-41784D01*
X31267Y-41822D01*
X31308Y-41868D01*
X31338Y-41922D01*
X31358Y-41980D01*
X31365Y-42042D01*
X31366Y-42050D01*
X32016Y-42250D02*
X32009Y-42311D01*
X31992Y-42370D01*
X31963Y-42424D01*
X31924Y-42472D01*
X31876Y-42511D01*
X31822Y-42541D01*
X31763Y-42559D01*
X31702Y-42565D01*
X31641Y-42560D01*
X31582Y-42542D01*
X31527Y-42514D01*
X31479Y-42475D01*
X31440Y-42428D01*
X31410Y-42374D01*
X31391Y-42315D01*
X31385Y-42254D01*
X31390Y-42193D01*
X31407Y-42134D01*
X31435Y-42079D01*
X31473Y-42031D01*
X31520Y-41991D01*
X31574Y-41961D01*
X31633Y-41942D01*
X31694Y-41935D01*
X31754Y-41939D01*
X31814Y-41956D01*
X31869Y-41984D01*
X31917Y-42022D01*
X31958Y-42068D01*
X31988Y-42122D01*
X32008Y-42180D01*
X32015Y-42242D01*
X32016Y-42250D01*
X33316Y-42650D02*
X33309Y-42711D01*
X33292Y-42770D01*
X33263Y-42824D01*
X33224Y-42872D01*
X33176Y-42911D01*
X33122Y-42941D01*
X33063Y-42959D01*
X33002Y-42965D01*
X32941Y-42960D01*
X32882Y-42942D01*
X32827Y-42914D01*
X32779Y-42875D01*
X32740Y-42828D01*
X32710Y-42774D01*
X32691Y-42715D01*
X32685Y-42654D01*
X32690Y-42593D01*
X32707Y-42534D01*
X32735Y-42479D01*
X32773Y-42431D01*
X32820Y-42391D01*
X32874Y-42361D01*
X32933Y-42342D01*
X32994Y-42335D01*
X33054Y-42339D01*
X33114Y-42356D01*
X33169Y-42384D01*
X33217Y-42422D01*
X33258Y-42468D01*
X33288Y-42522D01*
X33308Y-42580D01*
X33315Y-42642D01*
X33316Y-42650D01*
X32666Y-42450D02*
X32659Y-42511D01*
X32642Y-42570D01*
X32613Y-42624D01*
X32574Y-42672D01*
X32526Y-42711D01*
X32472Y-42741D01*
X32413Y-42759D01*
X32352Y-42765D01*
X32291Y-42760D01*
X32232Y-42742D01*
X32177Y-42714D01*
X32129Y-42675D01*
X32090Y-42628D01*
X32060Y-42574D01*
X32041Y-42515D01*
X32035Y-42454D01*
X32040Y-42393D01*
X32057Y-42334D01*
X32085Y-42279D01*
X32123Y-42231D01*
X32170Y-42191D01*
X32224Y-42161D01*
X32283Y-42142D01*
X32344Y-42135D01*
X32404Y-42139D01*
X32464Y-42156D01*
X32519Y-42184D01*
X32567Y-42222D01*
X32608Y-42268D01*
X32638Y-42322D01*
X32658Y-42380D01*
X32665Y-42442D01*
X32666Y-42450D01*
X30716Y-41850D02*
X30709Y-41911D01*
X30692Y-41970D01*
X30663Y-42024D01*
X30624Y-42072D01*
X30576Y-42111D01*
X30522Y-42141D01*
X30463Y-42159D01*
X30402Y-42165D01*
X30341Y-42160D01*
X30282Y-42142D01*
X30227Y-42114D01*
X30179Y-42075D01*
X30140Y-42028D01*
X30110Y-41974D01*
X30091Y-41915D01*
X30085Y-41854D01*
X30090Y-41793D01*
X30107Y-41734D01*
X30135Y-41679D01*
X30173Y-41631D01*
X30220Y-41591D01*
X30274Y-41561D01*
X30333Y-41542D01*
X30394Y-41535D01*
X30454Y-41539D01*
X30514Y-41556D01*
X30569Y-41584D01*
X30617Y-41622D01*
X30658Y-41668D01*
X30688Y-41722D01*
X30708Y-41780D01*
X30715Y-41842D01*
X30716Y-41850D01*
X34650Y-38200D02*
X34649Y-38209D01*
X34646Y-38219D01*
X34641Y-38227D01*
X34635Y-38235D01*
X34627Y-38241D01*
X34619Y-38246D01*
X34610Y-38248D01*
X34600Y-38249D01*
X34591Y-38249D01*
X34582Y-38246D01*
X34573Y-38241D01*
X34566Y-38235D01*
X34559Y-38228D01*
X34555Y-38219D01*
X34552Y-38210D01*
X34551Y-38200D01*
X34551Y-38191D01*
X34554Y-38182D01*
X34558Y-38173D01*
X34565Y-38166D01*
X34572Y-38159D01*
X34580Y-38155D01*
X34590Y-38152D01*
X34599Y-38151D01*
X34608Y-38151D01*
X34618Y-38154D01*
X34626Y-38158D01*
X34634Y-38164D01*
X34640Y-38172D01*
X34645Y-38180D01*
X34648Y-38189D01*
X34649Y-38199D01*
X34650Y-38200D01*
X34600Y-37750D02*
X34600Y-38150D01*
X34600Y-38150D02*
X34000Y-38150D01*
X34000Y-38150D02*
X34000Y-37750D01*
X34000Y-37350D02*
X34000Y-36950D01*
X34000Y-36950D02*
X34600Y-36950D01*
X34600Y-36950D02*
X34600Y-37350D01*
X36100Y-37050D02*
X36099Y-37059D01*
X36096Y-37069D01*
X36091Y-37077D01*
X36085Y-37085D01*
X36077Y-37091D01*
X36069Y-37096D01*
X36060Y-37098D01*
X36050Y-37099D01*
X36041Y-37099D01*
X36032Y-37096D01*
X36023Y-37091D01*
X36016Y-37085D01*
X36009Y-37078D01*
X36005Y-37069D01*
X36002Y-37060D01*
X36001Y-37050D01*
X36001Y-37041D01*
X36004Y-37032D01*
X36008Y-37023D01*
X36015Y-37016D01*
X36022Y-37009D01*
X36030Y-37005D01*
X36040Y-37002D01*
X36049Y-37001D01*
X36058Y-37001D01*
X36068Y-37004D01*
X36076Y-37008D01*
X36084Y-37014D01*
X36090Y-37022D01*
X36095Y-37030D01*
X36098Y-37039D01*
X36099Y-37049D01*
X36100Y-37050D01*
X35600Y-37050D02*
X36000Y-37050D01*
X36000Y-37050D02*
X36000Y-37650D01*
X36000Y-37650D02*
X35600Y-37650D01*
X35200Y-37650D02*
X34800Y-37650D01*
X34800Y-37650D02*
X34800Y-37050D01*
X34800Y-37050D02*
X35200Y-37050D01*
G54D12*
X28927Y-40203D02*
X28980Y-40277D01*
X29095Y-40361D01*
X29158Y-40371D01*
X29198Y-40365D01*
X29254Y-40336D01*
X29289Y-40289D01*
X29299Y-40226D01*
X29292Y-40187D01*
X29263Y-40130D01*
X29188Y-40040D01*
X29158Y-39982D01*
X29152Y-39942D01*
X29162Y-39879D01*
X29196Y-39833D01*
X29253Y-39804D01*
X29292Y-39797D01*
X29356Y-39809D01*
X29471Y-39892D01*
X29524Y-39965D01*
X29702Y-40060D02*
X29465Y-40630D01*
X29809Y-40350D01*
X29649Y-40764D01*
X30118Y-40362D01*
X30204Y-41167D02*
X29927Y-40965D01*
X30066Y-41066D02*
X30419Y-40581D01*
X30322Y-40617D01*
X30242Y-40629D01*
X30179Y-40618D01*
G54D11*
X39693Y-31371D02*
X39896Y-31371D01*
X39919Y-31360D01*
X39931Y-31348D01*
X39943Y-31324D01*
X39943Y-31276D01*
X39931Y-31252D01*
X39919Y-31241D01*
X39896Y-31229D01*
X39693Y-31229D01*
X39717Y-31121D02*
X39705Y-31109D01*
X39693Y-31086D01*
X39693Y-31026D01*
X39705Y-31002D01*
X39717Y-30990D01*
X39741Y-30979D01*
X39765Y-30979D01*
X39800Y-30990D01*
X39943Y-31133D01*
X39943Y-30979D01*
G54D13*
X34301Y-42597D02*
X34301Y-42921D01*
X34320Y-42959D01*
X34339Y-42978D01*
X34377Y-42997D01*
X34454Y-42997D01*
X34492Y-42978D01*
X34511Y-42959D01*
X34530Y-42921D01*
X34530Y-42597D01*
X34930Y-42997D02*
X34701Y-42997D01*
X34815Y-42997D02*
X34815Y-42597D01*
X34777Y-42654D01*
X34739Y-42692D01*
X34701Y-42711D01*
G54D11*
X37728Y-33841D02*
X37728Y-33591D01*
X37787Y-33591D01*
X37823Y-33603D01*
X37847Y-33627D01*
X37858Y-33651D01*
X37870Y-33698D01*
X37870Y-33734D01*
X37858Y-33782D01*
X37847Y-33805D01*
X37823Y-33829D01*
X37787Y-33841D01*
X37728Y-33841D01*
X38108Y-33841D02*
X37966Y-33841D01*
X38037Y-33841D02*
X38037Y-33591D01*
X38013Y-33627D01*
X37989Y-33651D01*
X37966Y-33663D01*
X38323Y-33591D02*
X38275Y-33591D01*
X38251Y-33603D01*
X38239Y-33615D01*
X38216Y-33651D01*
X38204Y-33698D01*
X38204Y-33794D01*
X38216Y-33817D01*
X38227Y-33829D01*
X38251Y-33841D01*
X38299Y-33841D01*
X38323Y-33829D01*
X38335Y-33817D01*
X38346Y-33794D01*
X38346Y-33734D01*
X38335Y-33710D01*
X38323Y-33698D01*
X38299Y-33686D01*
X38251Y-33686D01*
X38227Y-33698D01*
X38216Y-33710D01*
X38204Y-33734D01*
X34840Y-30770D02*
X34757Y-30651D01*
X34698Y-30770D02*
X34698Y-30520D01*
X34793Y-30520D01*
X34817Y-30532D01*
X34828Y-30544D01*
X34840Y-30568D01*
X34840Y-30604D01*
X34828Y-30627D01*
X34817Y-30639D01*
X34793Y-30651D01*
X34698Y-30651D01*
X35055Y-30520D02*
X35007Y-30520D01*
X34983Y-30532D01*
X34971Y-30544D01*
X34948Y-30580D01*
X34936Y-30627D01*
X34936Y-30723D01*
X34948Y-30746D01*
X34959Y-30758D01*
X34983Y-30770D01*
X35031Y-30770D01*
X35055Y-30758D01*
X35067Y-30746D01*
X35078Y-30723D01*
X35078Y-30663D01*
X35067Y-30639D01*
X35055Y-30627D01*
X35031Y-30615D01*
X34983Y-30615D01*
X34959Y-30627D01*
X34948Y-30639D01*
X34936Y-30663D01*
X38555Y-35298D02*
X38555Y-35048D01*
X38614Y-35048D01*
X38650Y-35060D01*
X38674Y-35084D01*
X38685Y-35108D01*
X38697Y-35155D01*
X38697Y-35191D01*
X38685Y-35239D01*
X38674Y-35262D01*
X38650Y-35286D01*
X38614Y-35298D01*
X38555Y-35298D01*
X38935Y-35298D02*
X38793Y-35298D01*
X38864Y-35298D02*
X38864Y-35048D01*
X38840Y-35084D01*
X38816Y-35108D01*
X38793Y-35120D01*
X39019Y-35048D02*
X39185Y-35048D01*
X39078Y-35298D01*
X35140Y-33845D02*
X34890Y-33845D01*
X34890Y-33786D01*
X34902Y-33750D01*
X34926Y-33726D01*
X34950Y-33715D01*
X34997Y-33703D01*
X35033Y-33703D01*
X35081Y-33715D01*
X35104Y-33726D01*
X35128Y-33750D01*
X35140Y-33786D01*
X35140Y-33845D01*
X35140Y-33584D02*
X35140Y-33536D01*
X35128Y-33512D01*
X35116Y-33500D01*
X35081Y-33476D01*
X35033Y-33465D01*
X34938Y-33465D01*
X34914Y-33476D01*
X34902Y-33488D01*
X34890Y-33512D01*
X34890Y-33560D01*
X34902Y-33584D01*
X34914Y-33595D01*
X34938Y-33607D01*
X34997Y-33607D01*
X35021Y-33595D01*
X35033Y-33584D01*
X35045Y-33560D01*
X35045Y-33512D01*
X35033Y-33488D01*
X35021Y-33476D01*
X34997Y-33465D01*
X30377Y-33452D02*
X30127Y-33452D01*
X30127Y-33393D01*
X30139Y-33357D01*
X30163Y-33333D01*
X30187Y-33322D01*
X30234Y-33310D01*
X30270Y-33310D01*
X30318Y-33322D01*
X30341Y-33333D01*
X30365Y-33357D01*
X30377Y-33393D01*
X30377Y-33452D01*
X30377Y-33072D02*
X30377Y-33214D01*
X30377Y-33143D02*
X30127Y-33143D01*
X30163Y-33167D01*
X30187Y-33191D01*
X30199Y-33214D01*
X30377Y-36562D02*
X30127Y-36562D01*
X30127Y-36503D01*
X30139Y-36467D01*
X30163Y-36443D01*
X30187Y-36432D01*
X30234Y-36420D01*
X30270Y-36420D01*
X30318Y-36432D01*
X30341Y-36443D01*
X30365Y-36467D01*
X30377Y-36503D01*
X30377Y-36562D01*
X30151Y-36324D02*
X30139Y-36312D01*
X30127Y-36289D01*
X30127Y-36229D01*
X30139Y-36205D01*
X30151Y-36193D01*
X30175Y-36182D01*
X30199Y-36182D01*
X30234Y-36193D01*
X30377Y-36336D01*
X30377Y-36182D01*
X30446Y-34786D02*
X30446Y-34536D01*
X30505Y-34536D01*
X30541Y-34548D01*
X30565Y-34572D01*
X30576Y-34596D01*
X30588Y-34643D01*
X30588Y-34679D01*
X30576Y-34727D01*
X30565Y-34750D01*
X30541Y-34774D01*
X30505Y-34786D01*
X30446Y-34786D01*
X30672Y-34536D02*
X30826Y-34536D01*
X30743Y-34631D01*
X30779Y-34631D01*
X30803Y-34643D01*
X30815Y-34655D01*
X30826Y-34679D01*
X30826Y-34739D01*
X30815Y-34762D01*
X30803Y-34774D01*
X30779Y-34786D01*
X30707Y-34786D01*
X30684Y-34774D01*
X30672Y-34762D01*
X32384Y-33452D02*
X32134Y-33452D01*
X32134Y-33393D01*
X32146Y-33357D01*
X32170Y-33333D01*
X32194Y-33322D01*
X32241Y-33310D01*
X32277Y-33310D01*
X32325Y-33322D01*
X32348Y-33333D01*
X32372Y-33357D01*
X32384Y-33393D01*
X32384Y-33452D01*
X32218Y-33095D02*
X32384Y-33095D01*
X32122Y-33155D02*
X32301Y-33214D01*
X32301Y-33060D01*
X32384Y-36168D02*
X32134Y-36168D01*
X32134Y-36109D01*
X32146Y-36073D01*
X32170Y-36049D01*
X32194Y-36038D01*
X32241Y-36026D01*
X32277Y-36026D01*
X32325Y-36038D01*
X32348Y-36049D01*
X32372Y-36073D01*
X32384Y-36109D01*
X32384Y-36168D01*
X32134Y-35799D02*
X32134Y-35918D01*
X32253Y-35930D01*
X32241Y-35918D01*
X32229Y-35895D01*
X32229Y-35835D01*
X32241Y-35811D01*
X32253Y-35799D01*
X32277Y-35788D01*
X32337Y-35788D01*
X32360Y-35799D01*
X32372Y-35811D01*
X32384Y-35835D01*
X32384Y-35895D01*
X32372Y-35918D01*
X32360Y-35930D01*
X32887Y-32739D02*
X32887Y-32489D01*
X32946Y-32489D01*
X32982Y-32501D01*
X33006Y-32525D01*
X33017Y-32549D01*
X33029Y-32596D01*
X33029Y-32632D01*
X33017Y-32680D01*
X33006Y-32703D01*
X32982Y-32727D01*
X32946Y-32739D01*
X32887Y-32739D01*
X33244Y-32489D02*
X33196Y-32489D01*
X33172Y-32501D01*
X33160Y-32513D01*
X33137Y-32549D01*
X33125Y-32596D01*
X33125Y-32692D01*
X33137Y-32715D01*
X33148Y-32727D01*
X33172Y-32739D01*
X33220Y-32739D01*
X33244Y-32727D01*
X33256Y-32715D01*
X33267Y-32692D01*
X33267Y-32632D01*
X33256Y-32608D01*
X33244Y-32596D01*
X33220Y-32584D01*
X33172Y-32584D01*
X33148Y-32596D01*
X33137Y-32608D01*
X33125Y-32632D01*
X32887Y-35337D02*
X32887Y-35087D01*
X32946Y-35087D01*
X32982Y-35099D01*
X33006Y-35123D01*
X33017Y-35147D01*
X33029Y-35194D01*
X33029Y-35230D01*
X33017Y-35278D01*
X33006Y-35301D01*
X32982Y-35325D01*
X32946Y-35337D01*
X32887Y-35337D01*
X33113Y-35087D02*
X33279Y-35087D01*
X33172Y-35337D01*
X32966Y-37857D02*
X32966Y-37607D01*
X33025Y-37607D01*
X33061Y-37619D01*
X33085Y-37643D01*
X33096Y-37667D01*
X33108Y-37714D01*
X33108Y-37750D01*
X33096Y-37798D01*
X33085Y-37821D01*
X33061Y-37845D01*
X33025Y-37857D01*
X32966Y-37857D01*
X33251Y-37714D02*
X33227Y-37702D01*
X33216Y-37691D01*
X33204Y-37667D01*
X33204Y-37655D01*
X33216Y-37631D01*
X33227Y-37619D01*
X33251Y-37607D01*
X33299Y-37607D01*
X33323Y-37619D01*
X33335Y-37631D01*
X33346Y-37655D01*
X33346Y-37667D01*
X33335Y-37691D01*
X33323Y-37702D01*
X33299Y-37714D01*
X33251Y-37714D01*
X33227Y-37726D01*
X33216Y-37738D01*
X33204Y-37762D01*
X33204Y-37810D01*
X33216Y-37833D01*
X33227Y-37845D01*
X33251Y-37857D01*
X33299Y-37857D01*
X33323Y-37845D01*
X33335Y-37833D01*
X33346Y-37810D01*
X33346Y-37762D01*
X33335Y-37738D01*
X33323Y-37726D01*
X33299Y-37714D01*
X34038Y-36327D02*
X33788Y-36327D01*
X33788Y-36268D01*
X33800Y-36232D01*
X33824Y-36208D01*
X33848Y-36197D01*
X33895Y-36185D01*
X33931Y-36185D01*
X33979Y-36197D01*
X34002Y-36208D01*
X34026Y-36232D01*
X34038Y-36268D01*
X34038Y-36327D01*
X34038Y-35947D02*
X34038Y-36089D01*
X34038Y-36018D02*
X33788Y-36018D01*
X33824Y-36042D01*
X33848Y-36066D01*
X33860Y-36089D01*
X33788Y-35792D02*
X33788Y-35768D01*
X33800Y-35744D01*
X33812Y-35732D01*
X33836Y-35720D01*
X33883Y-35709D01*
X33943Y-35709D01*
X33991Y-35720D01*
X34014Y-35732D01*
X34026Y-35744D01*
X34038Y-35768D01*
X34038Y-35792D01*
X34026Y-35816D01*
X34014Y-35828D01*
X33991Y-35839D01*
X33943Y-35851D01*
X33883Y-35851D01*
X33836Y-35839D01*
X33812Y-35828D01*
X33800Y-35816D01*
X33788Y-35792D01*
X36755Y-33964D02*
X36505Y-33964D01*
X36505Y-33905D01*
X36517Y-33869D01*
X36541Y-33845D01*
X36565Y-33834D01*
X36612Y-33822D01*
X36648Y-33822D01*
X36696Y-33834D01*
X36719Y-33845D01*
X36743Y-33869D01*
X36755Y-33905D01*
X36755Y-33964D01*
X36755Y-33584D02*
X36755Y-33726D01*
X36755Y-33655D02*
X36505Y-33655D01*
X36541Y-33679D01*
X36565Y-33703D01*
X36577Y-33726D01*
X36755Y-33346D02*
X36755Y-33488D01*
X36755Y-33417D02*
X36505Y-33417D01*
X36541Y-33441D01*
X36565Y-33465D01*
X36577Y-33488D01*
X36547Y-36282D02*
X36547Y-36032D01*
X36606Y-36032D01*
X36642Y-36044D01*
X36666Y-36068D01*
X36677Y-36092D01*
X36689Y-36139D01*
X36689Y-36175D01*
X36677Y-36223D01*
X36666Y-36246D01*
X36642Y-36270D01*
X36606Y-36282D01*
X36547Y-36282D01*
X36927Y-36282D02*
X36785Y-36282D01*
X36856Y-36282D02*
X36856Y-36032D01*
X36832Y-36068D01*
X36808Y-36092D01*
X36785Y-36104D01*
X37023Y-36056D02*
X37035Y-36044D01*
X37058Y-36032D01*
X37118Y-36032D01*
X37142Y-36044D01*
X37154Y-36056D01*
X37165Y-36080D01*
X37165Y-36104D01*
X37154Y-36139D01*
X37011Y-36282D01*
X37165Y-36282D01*
X36114Y-32188D02*
X36114Y-31938D01*
X36173Y-31938D01*
X36209Y-31950D01*
X36233Y-31974D01*
X36244Y-31998D01*
X36256Y-32045D01*
X36256Y-32081D01*
X36244Y-32129D01*
X36233Y-32152D01*
X36209Y-32176D01*
X36173Y-32188D01*
X36114Y-32188D01*
X36494Y-32188D02*
X36352Y-32188D01*
X36423Y-32188D02*
X36423Y-31938D01*
X36399Y-31974D01*
X36375Y-31998D01*
X36352Y-32010D01*
X36578Y-31938D02*
X36732Y-31938D01*
X36649Y-32033D01*
X36685Y-32033D01*
X36709Y-32045D01*
X36721Y-32057D01*
X36732Y-32081D01*
X36732Y-32141D01*
X36721Y-32164D01*
X36709Y-32176D01*
X36685Y-32188D01*
X36613Y-32188D01*
X36590Y-32176D01*
X36578Y-32164D01*
X38083Y-34786D02*
X38083Y-34536D01*
X38142Y-34536D01*
X38178Y-34548D01*
X38202Y-34572D01*
X38213Y-34596D01*
X38225Y-34643D01*
X38225Y-34679D01*
X38213Y-34727D01*
X38202Y-34750D01*
X38178Y-34774D01*
X38142Y-34786D01*
X38083Y-34786D01*
X38463Y-34786D02*
X38321Y-34786D01*
X38392Y-34786D02*
X38392Y-34536D01*
X38368Y-34572D01*
X38344Y-34596D01*
X38321Y-34608D01*
X38678Y-34620D02*
X38678Y-34786D01*
X38618Y-34524D02*
X38559Y-34703D01*
X38713Y-34703D01*
X36036Y-37188D02*
X36036Y-36938D01*
X36095Y-36938D01*
X36131Y-36950D01*
X36155Y-36974D01*
X36166Y-36998D01*
X36178Y-37045D01*
X36178Y-37081D01*
X36166Y-37129D01*
X36155Y-37152D01*
X36131Y-37176D01*
X36095Y-37188D01*
X36036Y-37188D01*
X36416Y-37188D02*
X36274Y-37188D01*
X36345Y-37188D02*
X36345Y-36938D01*
X36321Y-36974D01*
X36297Y-36998D01*
X36274Y-37010D01*
X36643Y-36938D02*
X36524Y-36938D01*
X36512Y-37057D01*
X36524Y-37045D01*
X36547Y-37033D01*
X36607Y-37033D01*
X36631Y-37045D01*
X36643Y-37057D01*
X36654Y-37081D01*
X36654Y-37141D01*
X36643Y-37164D01*
X36631Y-37176D01*
X36607Y-37188D01*
X36547Y-37188D01*
X36524Y-37176D01*
X36512Y-37164D01*
X30737Y-41556D02*
X30889Y-41556D01*
X30813Y-41632D02*
X30813Y-41480D01*
X30966Y-41432D02*
X31089Y-41432D01*
X31023Y-41508D01*
X31051Y-41508D01*
X31070Y-41518D01*
X31080Y-41527D01*
X31089Y-41546D01*
X31089Y-41594D01*
X31080Y-41613D01*
X31070Y-41622D01*
X31051Y-41632D01*
X30994Y-41632D01*
X30975Y-41622D01*
X30966Y-41613D01*
X31175Y-41613D02*
X31184Y-41622D01*
X31175Y-41632D01*
X31165Y-41622D01*
X31175Y-41613D01*
X31175Y-41632D01*
X31251Y-41432D02*
X31374Y-41432D01*
X31308Y-41508D01*
X31336Y-41508D01*
X31355Y-41518D01*
X31365Y-41527D01*
X31374Y-41546D01*
X31374Y-41594D01*
X31365Y-41613D01*
X31355Y-41622D01*
X31336Y-41632D01*
X31279Y-41632D01*
X31260Y-41622D01*
X31251Y-41613D01*
X31467Y-41699D02*
X31467Y-41861D01*
X31458Y-41880D01*
X31448Y-41889D01*
X31429Y-41899D01*
X31401Y-41899D01*
X31382Y-41889D01*
X31467Y-41822D02*
X31448Y-41832D01*
X31410Y-41832D01*
X31391Y-41822D01*
X31382Y-41813D01*
X31372Y-41794D01*
X31372Y-41737D01*
X31382Y-41718D01*
X31391Y-41708D01*
X31410Y-41699D01*
X31448Y-41699D01*
X31467Y-41708D01*
X31563Y-41699D02*
X31563Y-41832D01*
X31563Y-41718D02*
X31572Y-41708D01*
X31591Y-41699D01*
X31620Y-41699D01*
X31639Y-41708D01*
X31648Y-41727D01*
X31648Y-41832D01*
X31829Y-41832D02*
X31829Y-41632D01*
X31829Y-41822D02*
X31810Y-41832D01*
X31772Y-41832D01*
X31753Y-41822D01*
X31744Y-41813D01*
X31734Y-41794D01*
X31734Y-41737D01*
X31744Y-41718D01*
X31753Y-41708D01*
X31772Y-41699D01*
X31810Y-41699D01*
X31829Y-41708D01*
X32029Y-41832D02*
X31915Y-41832D01*
X31972Y-41832D02*
X31972Y-41632D01*
X31953Y-41661D01*
X31934Y-41680D01*
X31915Y-41689D01*
X32644Y-42232D02*
X32644Y-42099D01*
X32644Y-42032D02*
X32634Y-42041D01*
X32644Y-42051D01*
X32653Y-42041D01*
X32644Y-42032D01*
X32644Y-42051D01*
X32824Y-42222D02*
X32805Y-42232D01*
X32767Y-42232D01*
X32748Y-42222D01*
X32739Y-42213D01*
X32729Y-42194D01*
X32729Y-42137D01*
X32739Y-42118D01*
X32748Y-42108D01*
X32767Y-42099D01*
X32805Y-42099D01*
X32824Y-42108D01*
X32910Y-42099D02*
X32910Y-42299D01*
X32910Y-42108D02*
X32929Y-42099D01*
X32967Y-42099D01*
X32986Y-42108D01*
X32995Y-42118D01*
X33005Y-42137D01*
X33005Y-42194D01*
X32995Y-42213D01*
X32986Y-42222D01*
X32967Y-42232D01*
X32929Y-42232D01*
X32910Y-42222D01*
X33176Y-42222D02*
X33157Y-42232D01*
X33119Y-42232D01*
X33100Y-42222D01*
X33091Y-42213D01*
X33081Y-42194D01*
X33081Y-42137D01*
X33091Y-42118D01*
X33100Y-42108D01*
X33119Y-42099D01*
X33157Y-42099D01*
X33176Y-42108D01*
X33366Y-42232D02*
X33252Y-42232D01*
X33309Y-42232D02*
X33309Y-42032D01*
X33290Y-42061D01*
X33271Y-42080D01*
X33252Y-42089D01*
X31989Y-42032D02*
X31989Y-41899D01*
X31989Y-41832D02*
X31979Y-41841D01*
X31989Y-41851D01*
X31998Y-41841D01*
X31989Y-41832D01*
X31989Y-41851D01*
X32169Y-42022D02*
X32150Y-42032D01*
X32112Y-42032D01*
X32093Y-42022D01*
X32084Y-42013D01*
X32074Y-41994D01*
X32074Y-41937D01*
X32084Y-41918D01*
X32093Y-41908D01*
X32112Y-41899D01*
X32150Y-41899D01*
X32169Y-41908D01*
X32255Y-41899D02*
X32255Y-42099D01*
X32255Y-41908D02*
X32274Y-41899D01*
X32312Y-41899D01*
X32331Y-41908D01*
X32340Y-41918D01*
X32350Y-41937D01*
X32350Y-41994D01*
X32340Y-42013D01*
X32331Y-42022D01*
X32312Y-42032D01*
X32274Y-42032D01*
X32255Y-42022D01*
X32521Y-42032D02*
X32521Y-41832D01*
X32521Y-42022D02*
X32502Y-42032D01*
X32464Y-42032D01*
X32445Y-42022D01*
X32436Y-42013D01*
X32426Y-41994D01*
X32426Y-41937D01*
X32436Y-41918D01*
X32445Y-41908D01*
X32464Y-41899D01*
X32502Y-41899D01*
X32521Y-41908D01*
X32721Y-42032D02*
X32607Y-42032D01*
X32664Y-42032D02*
X32664Y-41832D01*
X32645Y-41861D01*
X32626Y-41880D01*
X32607Y-41889D01*
X30020Y-41432D02*
X30020Y-41299D01*
X30020Y-41318D02*
X30029Y-41308D01*
X30048Y-41299D01*
X30077Y-41299D01*
X30096Y-41308D01*
X30105Y-41327D01*
X30105Y-41432D01*
X30105Y-41327D02*
X30115Y-41308D01*
X30134Y-41299D01*
X30162Y-41299D01*
X30182Y-41308D01*
X30191Y-41327D01*
X30191Y-41432D01*
X30372Y-41422D02*
X30353Y-41432D01*
X30315Y-41432D01*
X30296Y-41422D01*
X30287Y-41413D01*
X30277Y-41394D01*
X30277Y-41337D01*
X30287Y-41318D01*
X30296Y-41308D01*
X30315Y-41299D01*
X30353Y-41299D01*
X30372Y-41308D01*
X30486Y-41432D02*
X30467Y-41422D01*
X30458Y-41403D01*
X30458Y-41232D01*
X30563Y-41432D02*
X30563Y-41299D01*
X30563Y-41337D02*
X30572Y-41318D01*
X30582Y-41308D01*
X30601Y-41299D01*
X30620Y-41299D01*
X30791Y-41432D02*
X30677Y-41432D01*
X30734Y-41432D02*
X30734Y-41232D01*
X30715Y-41261D01*
X30696Y-41280D01*
X30677Y-41289D01*
X34401Y-37711D02*
X34282Y-37794D01*
X34401Y-37853D02*
X34151Y-37853D01*
X34151Y-37758D01*
X34163Y-37734D01*
X34175Y-37723D01*
X34199Y-37711D01*
X34235Y-37711D01*
X34258Y-37723D01*
X34270Y-37734D01*
X34282Y-37758D01*
X34282Y-37853D01*
X34401Y-37473D02*
X34401Y-37615D01*
X34401Y-37544D02*
X34151Y-37544D01*
X34187Y-37568D01*
X34211Y-37592D01*
X34223Y-37615D01*
X34401Y-37235D02*
X34401Y-37377D01*
X34401Y-37306D02*
X34151Y-37306D01*
X34187Y-37330D01*
X34211Y-37354D01*
X34223Y-37377D01*
X35239Y-37451D02*
X35156Y-37332D01*
X35097Y-37451D02*
X35097Y-37201D01*
X35192Y-37201D01*
X35216Y-37213D01*
X35227Y-37225D01*
X35239Y-37249D01*
X35239Y-37285D01*
X35227Y-37308D01*
X35216Y-37320D01*
X35192Y-37332D01*
X35097Y-37332D01*
X35477Y-37451D02*
X35335Y-37451D01*
X35406Y-37451D02*
X35406Y-37201D01*
X35382Y-37237D01*
X35358Y-37261D01*
X35335Y-37273D01*
X35573Y-37225D02*
X35585Y-37213D01*
X35608Y-37201D01*
X35668Y-37201D01*
X35692Y-37213D01*
X35704Y-37225D01*
X35715Y-37249D01*
X35715Y-37273D01*
X35704Y-37308D01*
X35561Y-37451D01*
X35715Y-37451D01*
M02*
